<?xml version="1.0" encoding="UTF-8" standalone="no"?>
<!DOCTYPE svg PUBLIC "-//W3C//DTD SVG 1.1//EN"
 "http://www.w3.org/Graphics/SVG/1.1/DTD/svg11.dtd">
<!-- Generated by graphviz version 2.40.1 (20161225.0304)
 -->
<!-- Title: UmlClassDiagram Pages: 1 -->
<svg width="3764pt" height="1503pt"
 viewBox="0.00 0.00 3764.43 1503.40" xmlns="http://www.w3.org/2000/svg" xmlns:xlink="http://www.w3.org/1999/xlink">
<g id="graph0" class="graph" transform="scale(1 1) rotate(0) translate(4 1499.4)">
<title>UmlClassDiagram</title>
<polygon fill="#ffffff" stroke="transparent" points="-4,4 -4,-1499.4 3760.4291,-1499.4 3760.4291,4 -4,4"/>
<!-- 0 -->
<g id="node1" class="node">
<title>0</title>
<polygon fill="#f2f2f2" stroke="#000000" points="163.4878,-1370.1 163.4878,-1494.9 321.3862,-1494.9 321.3862,-1370.1 163.4878,-1370.1"/>
<text text-anchor="middle" x="242.437" y="-1478.3" font-family="Times,serif" font-size="14.00" fill="#000000">&lt;&lt;Abstract&gt;&gt;</text>
<text text-anchor="middle" x="242.437" y="-1461.5" font-family="Times,serif" font-size="14.00" fill="#000000">Context</text>
<polyline fill="none" stroke="#000000" points="163.4878,-1453.3 321.3862,-1453.3 "/>
<text text-anchor="middle" x="242.437" y="-1436.7" font-family="Times,serif" font-size="14.00" fill="#000000"> </text>
<polyline fill="none" stroke="#000000" points="163.4878,-1428.5 321.3862,-1428.5 "/>
<text text-anchor="start" x="171.4878" y="-1411.9" font-family="Times,serif" font-size="14.00" fill="#000000">Internal:</text>
<text text-anchor="start" x="171.4878" y="-1395.1" font-family="Times,serif" font-size="14.00" fill="#000000"> &#160;&#160;&#160;_msgSender(): address</text>
<text text-anchor="start" x="171.4878" y="-1378.3" font-family="Times,serif" font-size="14.00" fill="#000000"> &#160;&#160;&#160;_msgData(): bytes</text>
</g>
<!-- 1 -->
<g id="node2" class="node">
<title>1</title>
<polygon fill="#f2f2f2" stroke="#000000" points="0,-1073.9 0,-1282.7 484.874,-1282.7 484.874,-1073.9 0,-1073.9"/>
<text text-anchor="middle" x="242.437" y="-1266.1" font-family="Times,serif" font-size="14.00" fill="#000000">&lt;&lt;Abstract&gt;&gt;</text>
<text text-anchor="middle" x="242.437" y="-1249.3" font-family="Times,serif" font-size="14.00" fill="#000000">Ownable</text>
<polyline fill="none" stroke="#000000" points="0,-1241.1 484.874,-1241.1 "/>
<text text-anchor="start" x="8" y="-1224.5" font-family="Times,serif" font-size="14.00" fill="#000000">Private:</text>
<text text-anchor="start" x="8" y="-1207.7" font-family="Times,serif" font-size="14.00" fill="#000000"> &#160;&#160;_owner: address</text>
<polyline fill="none" stroke="#000000" points="0,-1199.5 484.874,-1199.5 "/>
<text text-anchor="start" x="8" y="-1182.9" font-family="Times,serif" font-size="14.00" fill="#000000">Public:</text>
<text text-anchor="start" x="8" y="-1166.1" font-family="Times,serif" font-size="14.00" fill="#000000"> &#160;&#160;&#160;&lt;&lt;event&gt;&gt; OwnershipTransferred(previousOwner: address, newOwner: address)</text>
<text text-anchor="start" x="8" y="-1149.3" font-family="Times,serif" font-size="14.00" fill="#000000"> &#160;&#160;&#160;&lt;&lt;modifier&gt;&gt; onlyOwner()</text>
<text text-anchor="start" x="8" y="-1132.5" font-family="Times,serif" font-size="14.00" fill="#000000"> &#160;&#160;&#160;constructor()</text>
<text text-anchor="start" x="8" y="-1115.7" font-family="Times,serif" font-size="14.00" fill="#000000"> &#160;&#160;&#160;owner(): address</text>
<text text-anchor="start" x="8" y="-1098.9" font-family="Times,serif" font-size="14.00" fill="#000000"> &#160;&#160;&#160;renounceOwnership()</text>
<text text-anchor="start" x="8" y="-1082.1" font-family="Times,serif" font-size="14.00" fill="#000000"> &#160;&#160;&#160;transferOwnership(newOwner: address)</text>
</g>
<!-- 1&#45;&gt;0 -->
<g id="edge1" class="edge">
<title>1&#45;&gt;0</title>
<path fill="none" stroke="#000000" d="M242.437,-1282.7933C242.437,-1301.6265 242.437,-1321.1438 242.437,-1339.619"/>
<polygon fill="none" stroke="#000000" points="231.9371,-1339.9035 242.437,-1369.9035 252.9371,-1339.9036 231.9371,-1339.9035"/>
</g>
<!-- 2 -->
<g id="node3" class="node">
<title>2</title>
<polygon fill="#f2f2f2" stroke="#000000" points="503.1371,-1023.5 503.1371,-1333.1 941.7369,-1333.1 941.7369,-1023.5 503.1371,-1023.5"/>
<text text-anchor="middle" x="722.437" y="-1316.5" font-family="Times,serif" font-size="14.00" fill="#000000">&lt;&lt;Interface&gt;&gt;</text>
<text text-anchor="middle" x="722.437" y="-1299.7" font-family="Times,serif" font-size="14.00" fill="#000000">IBEP20</text>
<polyline fill="none" stroke="#000000" points="503.1371,-1291.5 941.7369,-1291.5 "/>
<text text-anchor="middle" x="722.437" y="-1274.9" font-family="Times,serif" font-size="14.00" fill="#000000"> </text>
<polyline fill="none" stroke="#000000" points="503.1371,-1266.7 941.7369,-1266.7 "/>
<text text-anchor="start" x="511.1371" y="-1250.1" font-family="Times,serif" font-size="14.00" fill="#000000">External:</text>
<text text-anchor="start" x="511.1371" y="-1233.3" font-family="Times,serif" font-size="14.00" fill="#000000"> &#160;&#160;&#160;&#160;name(): string</text>
<text text-anchor="start" x="511.1371" y="-1216.5" font-family="Times,serif" font-size="14.00" fill="#000000"> &#160;&#160;&#160;&#160;symbol(): string</text>
<text text-anchor="start" x="511.1371" y="-1199.7" font-family="Times,serif" font-size="14.00" fill="#000000"> &#160;&#160;&#160;&#160;decimals(): uint8</text>
<text text-anchor="start" x="511.1371" y="-1182.9" font-family="Times,serif" font-size="14.00" fill="#000000"> &#160;&#160;&#160;&#160;totalSupply(): uint256</text>
<text text-anchor="start" x="511.1371" y="-1166.1" font-family="Times,serif" font-size="14.00" fill="#000000"> &#160;&#160;&#160;&#160;balanceOf(account: address): uint256</text>
<text text-anchor="start" x="511.1371" y="-1149.3" font-family="Times,serif" font-size="14.00" fill="#000000"> &#160;&#160;&#160;&#160;getOwner(): address</text>
<text text-anchor="start" x="511.1371" y="-1132.5" font-family="Times,serif" font-size="14.00" fill="#000000"> &#160;&#160;&#160;&#160;transfer(recipient: address, amount: uint256): bool</text>
<text text-anchor="start" x="511.1371" y="-1115.7" font-family="Times,serif" font-size="14.00" fill="#000000"> &#160;&#160;&#160;&#160;transferFrom(sender: address, recipient: address, amount: uint256): bool</text>
<text text-anchor="start" x="511.1371" y="-1098.9" font-family="Times,serif" font-size="14.00" fill="#000000"> &#160;&#160;&#160;&#160;approve(spender: address, amount: uint256): bool</text>
<text text-anchor="start" x="511.1371" y="-1082.1" font-family="Times,serif" font-size="14.00" fill="#000000"> &#160;&#160;&#160;&#160;allowance(_owner: address, spender: address): uint256</text>
<text text-anchor="start" x="511.1371" y="-1065.3" font-family="Times,serif" font-size="14.00" fill="#000000">Public:</text>
<text text-anchor="start" x="511.1371" y="-1048.5" font-family="Times,serif" font-size="14.00" fill="#000000"> &#160;&#160;&#160;&lt;&lt;event&gt;&gt; Transfer(from: address, to: address, value: uint256)</text>
<text text-anchor="start" x="511.1371" y="-1031.7" font-family="Times,serif" font-size="14.00" fill="#000000"> &#160;&#160;&#160;&lt;&lt;event&gt;&gt; Approval(owner: address, spender: address, value: uint256)</text>
</g>
<!-- 3 -->
<g id="node4" class="node">
<title>3</title>
<polygon fill="#f2f2f2" stroke="#000000" points="376.8871,-475.3 376.8871,-986.5 811.9869,-986.5 811.9869,-475.3 376.8871,-475.3"/>
<text text-anchor="middle" x="594.437" y="-969.9" font-family="Times,serif" font-size="14.00" fill="#000000">BEP20</text>
<polyline fill="none" stroke="#000000" points="376.8871,-961.7 811.9869,-961.7 "/>
<text text-anchor="start" x="384.8871" y="-945.1" font-family="Times,serif" font-size="14.00" fill="#000000">Private:</text>
<text text-anchor="start" x="384.8871" y="-928.3" font-family="Times,serif" font-size="14.00" fill="#000000"> &#160;&#160;_balances: mapping(address=&gt;uint256)</text>
<text text-anchor="start" x="384.8871" y="-911.5" font-family="Times,serif" font-size="14.00" fill="#000000"> &#160;&#160;_allowances: mapping(address=&gt;mapping(address=&gt;uint256))</text>
<text text-anchor="start" x="384.8871" y="-894.7" font-family="Times,serif" font-size="14.00" fill="#000000"> &#160;&#160;_totalSupply: uint256</text>
<text text-anchor="start" x="384.8871" y="-877.9" font-family="Times,serif" font-size="14.00" fill="#000000"> &#160;&#160;_name: string</text>
<text text-anchor="start" x="384.8871" y="-861.1" font-family="Times,serif" font-size="14.00" fill="#000000"> &#160;&#160;_symbol: string</text>
<text text-anchor="start" x="384.8871" y="-844.3" font-family="Times,serif" font-size="14.00" fill="#000000"> &#160;&#160;_decimals: uint8</text>
<polyline fill="none" stroke="#000000" points="376.8871,-836.1 811.9869,-836.1 "/>
<text text-anchor="start" x="384.8871" y="-819.5" font-family="Times,serif" font-size="14.00" fill="#000000">Internal:</text>
<text text-anchor="start" x="384.8871" y="-802.7" font-family="Times,serif" font-size="14.00" fill="#000000"> &#160;&#160;&#160;_transfer(sender: address, recipient: address, amount: uint256)</text>
<text text-anchor="start" x="384.8871" y="-785.9" font-family="Times,serif" font-size="14.00" fill="#000000"> &#160;&#160;&#160;_mint(account: address, amount: uint256)</text>
<text text-anchor="start" x="384.8871" y="-769.1" font-family="Times,serif" font-size="14.00" fill="#000000"> &#160;&#160;&#160;_burn(account: address, amount: uint256)</text>
<text text-anchor="start" x="384.8871" y="-752.3" font-family="Times,serif" font-size="14.00" fill="#000000"> &#160;&#160;&#160;_approve(owner: address, spender: address, amount: uint256)</text>
<text text-anchor="start" x="384.8871" y="-735.5" font-family="Times,serif" font-size="14.00" fill="#000000"> &#160;&#160;&#160;_setupDecimals(decimals_: uint8)</text>
<text text-anchor="start" x="384.8871" y="-718.7" font-family="Times,serif" font-size="14.00" fill="#000000"> &#160;&#160;&#160;_beforeTokenTransfer(from: address, to: address, amount: uint256)</text>
<text text-anchor="start" x="384.8871" y="-701.9" font-family="Times,serif" font-size="14.00" fill="#000000">Public:</text>
<text text-anchor="start" x="384.8871" y="-685.1" font-family="Times,serif" font-size="14.00" fill="#000000"> &#160;&#160;&#160;constructor(name_: string, symbol_: string)</text>
<text text-anchor="start" x="384.8871" y="-668.3" font-family="Times,serif" font-size="14.00" fill="#000000"> &#160;&#160;&#160;name(): string</text>
<text text-anchor="start" x="384.8871" y="-651.5" font-family="Times,serif" font-size="14.00" fill="#000000"> &#160;&#160;&#160;symbol(): string</text>
<text text-anchor="start" x="384.8871" y="-634.7" font-family="Times,serif" font-size="14.00" fill="#000000"> &#160;&#160;&#160;decimals(): uint8</text>
<text text-anchor="start" x="384.8871" y="-617.9" font-family="Times,serif" font-size="14.00" fill="#000000"> &#160;&#160;&#160;totalSupply(): uint256</text>
<text text-anchor="start" x="384.8871" y="-601.1" font-family="Times,serif" font-size="14.00" fill="#000000"> &#160;&#160;&#160;balanceOf(account: address): uint256</text>
<text text-anchor="start" x="384.8871" y="-584.3" font-family="Times,serif" font-size="14.00" fill="#000000"> &#160;&#160;&#160;getOwner(): address</text>
<text text-anchor="start" x="384.8871" y="-567.5" font-family="Times,serif" font-size="14.00" fill="#000000"> &#160;&#160;&#160;transfer(recipient: address, amount: uint256): bool</text>
<text text-anchor="start" x="384.8871" y="-550.7" font-family="Times,serif" font-size="14.00" fill="#000000"> &#160;&#160;&#160;transferFrom(sender: address, recipient: address, amount: uint256): bool</text>
<text text-anchor="start" x="384.8871" y="-533.9" font-family="Times,serif" font-size="14.00" fill="#000000"> &#160;&#160;&#160;approve(spender: address, amount: uint256): bool</text>
<text text-anchor="start" x="384.8871" y="-517.1" font-family="Times,serif" font-size="14.00" fill="#000000"> &#160;&#160;&#160;allowance(owner: address, spender: address): uint256</text>
<text text-anchor="start" x="384.8871" y="-500.3" font-family="Times,serif" font-size="14.00" fill="#000000"> &#160;&#160;&#160;increaseAllowance(spender: address, addedValue: uint256): bool</text>
<text text-anchor="start" x="384.8871" y="-483.5" font-family="Times,serif" font-size="14.00" fill="#000000"> &#160;&#160;&#160;decreaseAllowance(spender: address, subtractedValue: uint256): bool</text>
</g>
<!-- 3&#45;&gt;1 -->
<g id="edge2" class="edge">
<title>3&#45;&gt;1</title>
<path fill="none" stroke="#000000" d="M393.2485,-986.6151C376.1139,-1008.3936 359.3046,-1029.7587 343.4882,-1049.8616"/>
<polygon fill="none" stroke="#000000" points="335.0311,-1043.6297 324.7332,-1073.6997 351.5353,-1056.6147 335.0311,-1043.6297"/>
</g>
<!-- 3&#45;&gt;2 -->
<g id="edge3" class="edge">
<title>3&#45;&gt;2</title>
<path fill="none" stroke="#000000" stroke-dasharray="5,2" d="M667.5965,-986.6151C668.3466,-989.237 669.0949,-991.8529 669.8412,-994.4612"/>
<polygon fill="none" stroke="#000000" points="659.757,-997.3874 678.1039,-1023.342 679.947,-991.611 659.757,-997.3874"/>
</g>
<!-- 4 -->
<g id="node5" class="node">
<title>4</title>
<polygon fill="#f2f2f2" stroke="#000000" points="755.9047,-195.9 755.9047,-421.5 1012.9693,-421.5 1012.9693,-195.9 755.9047,-195.9"/>
<text text-anchor="middle" x="884.437" y="-404.9" font-family="Times,serif" font-size="14.00" fill="#000000">&lt;&lt;Abstract&gt;&gt;</text>
<text text-anchor="middle" x="884.437" y="-388.1" font-family="Times,serif" font-size="14.00" fill="#000000">BEP20Mintable</text>
<polyline fill="none" stroke="#000000" points="755.9047,-379.9 1012.9693,-379.9 "/>
<text text-anchor="start" x="763.9047" y="-363.3" font-family="Times,serif" font-size="14.00" fill="#000000">Private:</text>
<text text-anchor="start" x="763.9047" y="-346.5" font-family="Times,serif" font-size="14.00" fill="#000000"> &#160;&#160;_mintingFinished: bool</text>
<polyline fill="none" stroke="#000000" points="755.9047,-338.3 1012.9693,-338.3 "/>
<text text-anchor="start" x="763.9047" y="-321.7" font-family="Times,serif" font-size="14.00" fill="#000000">Internal:</text>
<text text-anchor="start" x="763.9047" y="-304.9" font-family="Times,serif" font-size="14.00" fill="#000000"> &#160;&#160;&#160;_finishMinting()</text>
<text text-anchor="start" x="763.9047" y="-288.1" font-family="Times,serif" font-size="14.00" fill="#000000">Public:</text>
<text text-anchor="start" x="763.9047" y="-271.3" font-family="Times,serif" font-size="14.00" fill="#000000"> &#160;&#160;&#160;&lt;&lt;event&gt;&gt; MintFinished()</text>
<text text-anchor="start" x="763.9047" y="-254.5" font-family="Times,serif" font-size="14.00" fill="#000000"> &#160;&#160;&#160;&lt;&lt;modifier&gt;&gt; canMint()</text>
<text text-anchor="start" x="763.9047" y="-237.7" font-family="Times,serif" font-size="14.00" fill="#000000"> &#160;&#160;&#160;mintingFinished(): bool</text>
<text text-anchor="start" x="763.9047" y="-220.9" font-family="Times,serif" font-size="14.00" fill="#000000"> &#160;&#160;&#160;mint(account: address, amount: uint256)</text>
<text text-anchor="start" x="763.9047" y="-204.1" font-family="Times,serif" font-size="14.00" fill="#000000"> &#160;&#160;&#160;finishMinting()</text>
</g>
<!-- 4&#45;&gt;3 -->
<g id="edge4" class="edge">
<title>4&#45;&gt;3</title>
<path fill="none" stroke="#000000" d="M806.9129,-421.5644C800.5358,-430.8486 793.9346,-440.459 787.1778,-450.296"/>
<polygon fill="none" stroke="#000000" points="778.4309,-444.4849 770.1004,-475.1583 795.7409,-456.3747 778.4309,-444.4849"/>
</g>
<!-- 5 -->
<g id="node6" class="node">
<title>5</title>
<polygon fill="#f2f2f2" stroke="#000000" points="450.7434,-246.3 450.7434,-371.1 738.1306,-371.1 738.1306,-246.3 450.7434,-246.3"/>
<text text-anchor="middle" x="594.437" y="-354.5" font-family="Times,serif" font-size="14.00" fill="#000000">&lt;&lt;Abstract&gt;&gt;</text>
<text text-anchor="middle" x="594.437" y="-337.7" font-family="Times,serif" font-size="14.00" fill="#000000">BEP20Burnable</text>
<polyline fill="none" stroke="#000000" points="450.7434,-329.5 738.1306,-329.5 "/>
<text text-anchor="middle" x="594.437" y="-312.9" font-family="Times,serif" font-size="14.00" fill="#000000"> </text>
<polyline fill="none" stroke="#000000" points="450.7434,-304.7 738.1306,-304.7 "/>
<text text-anchor="start" x="458.7434" y="-288.1" font-family="Times,serif" font-size="14.00" fill="#000000">Public:</text>
<text text-anchor="start" x="458.7434" y="-271.3" font-family="Times,serif" font-size="14.00" fill="#000000"> &#160;&#160;&#160;burn(amount: uint256)</text>
<text text-anchor="start" x="458.7434" y="-254.5" font-family="Times,serif" font-size="14.00" fill="#000000"> &#160;&#160;&#160;burnFrom(account: address, amount: uint256)</text>
</g>
<!-- 5&#45;&gt;3 -->
<g id="edge5" class="edge">
<title>5&#45;&gt;3</title>
<path fill="none" stroke="#000000" d="M594.437,-371.4517C594.437,-392.6228 594.437,-417.8191 594.437,-444.9055"/>
<polygon fill="none" stroke="#000000" points="583.9371,-444.9378 594.437,-474.9379 604.9371,-444.9379 583.9371,-444.9378"/>
</g>
<!-- 6 -->
<g id="node7" class="node">
<title>6</title>
<polygon fill="#f2f2f2" stroke="#000000" points="3033.0193,-1124.3 3033.0193,-1232.3 3309.8547,-1232.3 3309.8547,-1124.3 3033.0193,-1124.3"/>
<text text-anchor="middle" x="3171.437" y="-1215.7" font-family="Times,serif" font-size="14.00" fill="#000000">&lt;&lt;Interface&gt;&gt;</text>
<text text-anchor="middle" x="3171.437" y="-1198.9" font-family="Times,serif" font-size="14.00" fill="#000000">IERC165</text>
<polyline fill="none" stroke="#000000" points="3033.0193,-1190.7 3309.8547,-1190.7 "/>
<text text-anchor="middle" x="3171.437" y="-1174.1" font-family="Times,serif" font-size="14.00" fill="#000000"> </text>
<polyline fill="none" stroke="#000000" points="3033.0193,-1165.9 3309.8547,-1165.9 "/>
<text text-anchor="start" x="3041.0193" y="-1149.3" font-family="Times,serif" font-size="14.00" fill="#000000">External:</text>
<text text-anchor="start" x="3041.0193" y="-1132.5" font-family="Times,serif" font-size="14.00" fill="#000000"> &#160;&#160;&#160;&#160;supportsInterface(interfaceId: bytes4): bool</text>
</g>
<!-- 7 -->
<g id="node8" class="node">
<title>7</title>
<polygon fill="#f2f2f2" stroke="#000000" points="2463.7875,-634.9 2463.7875,-826.9 3017.0865,-826.9 3017.0865,-634.9 2463.7875,-634.9"/>
<text text-anchor="middle" x="2740.437" y="-810.3" font-family="Times,serif" font-size="14.00" fill="#000000">&lt;&lt;Interface&gt;&gt;</text>
<text text-anchor="middle" x="2740.437" y="-793.5" font-family="Times,serif" font-size="14.00" fill="#000000">IBEP20Operable</text>
<polyline fill="none" stroke="#000000" points="2463.7875,-785.3 3017.0865,-785.3 "/>
<text text-anchor="middle" x="2740.437" y="-768.7" font-family="Times,serif" font-size="14.00" fill="#000000"> </text>
<polyline fill="none" stroke="#000000" points="2463.7875,-760.5 3017.0865,-760.5 "/>
<text text-anchor="start" x="2471.7875" y="-743.9" font-family="Times,serif" font-size="14.00" fill="#000000">External:</text>
<text text-anchor="start" x="2471.7875" y="-727.1" font-family="Times,serif" font-size="14.00" fill="#000000"> &#160;&#160;&#160;&#160;transferAndCall(recipient: address, amount: uint256): bool</text>
<text text-anchor="start" x="2471.7875" y="-710.3" font-family="Times,serif" font-size="14.00" fill="#000000"> &#160;&#160;&#160;&#160;transferAndCall(recipient: address, amount: uint256, data: bytes): bool</text>
<text text-anchor="start" x="2471.7875" y="-693.5" font-family="Times,serif" font-size="14.00" fill="#000000"> &#160;&#160;&#160;&#160;transferFromAndCall(sender: address, recipient: address, amount: uint256): bool</text>
<text text-anchor="start" x="2471.7875" y="-676.7" font-family="Times,serif" font-size="14.00" fill="#000000"> &#160;&#160;&#160;&#160;transferFromAndCall(sender: address, recipient: address, amount: uint256, data: bytes): bool</text>
<text text-anchor="start" x="2471.7875" y="-659.9" font-family="Times,serif" font-size="14.00" fill="#000000"> &#160;&#160;&#160;&#160;approveAndCall(spender: address, amount: uint256): bool</text>
<text text-anchor="start" x="2471.7875" y="-643.1" font-family="Times,serif" font-size="14.00" fill="#000000"> &#160;&#160;&#160;&#160;approveAndCall(spender: address, amount: uint256, data: bytes): bool</text>
</g>
<!-- 7&#45;&gt;2 -->
<g id="edge6" class="edge">
<title>7&#45;&gt;2</title>
<path fill="none" stroke="#000000" stroke-dasharray="5,2" d="M2661.2708,-827.0497C2608.8489,-883.6384 2535.0678,-950.9779 2454.437,-987 2195.3458,-1102.75 1385.8503,-1151.5854 971.7917,-1169.418"/>
<polygon fill="none" stroke="#000000" points="971.297,-1158.9294 941.767,-1170.6865 972.1835,-1179.9107 971.297,-1158.9294"/>
</g>
<!-- 7&#45;&gt;6 -->
<g id="edge7" class="edge">
<title>7&#45;&gt;6</title>
<path fill="none" stroke="#000000" stroke-dasharray="5,2" d="M2833.162,-827.1533C2912.5919,-909.6056 3025.4158,-1026.7226 3098.523,-1102.6116"/>
<polygon fill="none" stroke="#000000" points="3091.0228,-1109.9604 3119.3983,-1124.2812 3106.1467,-1095.3909 3091.0228,-1109.9604"/>
</g>
<!-- 8 -->
<g id="node9" class="node">
<title>8</title>
<polygon fill="#f2f2f2" stroke="#000000" points="829.6381,-676.9 829.6381,-784.9 1385.2359,-784.9 1385.2359,-676.9 829.6381,-676.9"/>
<text text-anchor="middle" x="1107.437" y="-768.3" font-family="Times,serif" font-size="14.00" fill="#000000">&lt;&lt;Interface&gt;&gt;</text>
<text text-anchor="middle" x="1107.437" y="-751.5" font-family="Times,serif" font-size="14.00" fill="#000000">IBEP20OperableReceiver</text>
<polyline fill="none" stroke="#000000" points="829.6381,-743.3 1385.2359,-743.3 "/>
<text text-anchor="middle" x="1107.437" y="-726.7" font-family="Times,serif" font-size="14.00" fill="#000000"> </text>
<polyline fill="none" stroke="#000000" points="829.6381,-718.5 1385.2359,-718.5 "/>
<text text-anchor="start" x="837.6381" y="-701.9" font-family="Times,serif" font-size="14.00" fill="#000000">External:</text>
<text text-anchor="start" x="837.6381" y="-685.1" font-family="Times,serif" font-size="14.00" fill="#000000"> &#160;&#160;&#160;&#160;onTransferReceived(operator: address, sender: address, amount: uint256, data: bytes): bytes4</text>
</g>
<!-- 9 -->
<g id="node10" class="node">
<title>9</title>
<polygon fill="#f2f2f2" stroke="#000000" points="1403.4113,-676.9 1403.4113,-784.9 1861.4627,-784.9 1861.4627,-676.9 1403.4113,-676.9"/>
<text text-anchor="middle" x="1632.437" y="-768.3" font-family="Times,serif" font-size="14.00" fill="#000000">&lt;&lt;Interface&gt;&gt;</text>
<text text-anchor="middle" x="1632.437" y="-751.5" font-family="Times,serif" font-size="14.00" fill="#000000">IBEP20OperableSpender</text>
<polyline fill="none" stroke="#000000" points="1403.4113,-743.3 1861.4627,-743.3 "/>
<text text-anchor="middle" x="1632.437" y="-726.7" font-family="Times,serif" font-size="14.00" fill="#000000"> </text>
<polyline fill="none" stroke="#000000" points="1403.4113,-718.5 1861.4627,-718.5 "/>
<text text-anchor="start" x="1411.4113" y="-701.9" font-family="Times,serif" font-size="14.00" fill="#000000">External:</text>
<text text-anchor="start" x="1411.4113" y="-685.1" font-family="Times,serif" font-size="14.00" fill="#000000"> &#160;&#160;&#160;&#160;onApprovalReceived(sender: address, amount: uint256, data: bytes): bytes4</text>
</g>
<!-- 10 -->
<g id="node11" class="node">
<title>10</title>
<polygon fill="#f2f2f2" stroke="#000000" points="1879.379,-584.5 1879.379,-877.3 2445.495,-877.3 2445.495,-584.5 1879.379,-584.5"/>
<text text-anchor="middle" x="2162.437" y="-860.7" font-family="Times,serif" font-size="14.00" fill="#000000">&lt;&lt;Library&gt;&gt;</text>
<text text-anchor="middle" x="2162.437" y="-843.9" font-family="Times,serif" font-size="14.00" fill="#000000">Address</text>
<polyline fill="none" stroke="#000000" points="1879.379,-835.7 2445.495,-835.7 "/>
<text text-anchor="middle" x="2162.437" y="-819.1" font-family="Times,serif" font-size="14.00" fill="#000000"> </text>
<polyline fill="none" stroke="#000000" points="1879.379,-810.9 2445.495,-810.9 "/>
<text text-anchor="start" x="1887.379" y="-794.3" font-family="Times,serif" font-size="14.00" fill="#000000">Private:</text>
<text text-anchor="start" x="1887.379" y="-777.5" font-family="Times,serif" font-size="14.00" fill="#000000"> &#160;&#160;&#160;_verifyCallResult(success: bool, returndata: bytes, errorMessage: string): bytes</text>
<text text-anchor="start" x="1887.379" y="-760.7" font-family="Times,serif" font-size="14.00" fill="#000000">Internal:</text>
<text text-anchor="start" x="1887.379" y="-743.9" font-family="Times,serif" font-size="14.00" fill="#000000"> &#160;&#160;&#160;isContract(account: address): bool</text>
<text text-anchor="start" x="1887.379" y="-727.1" font-family="Times,serif" font-size="14.00" fill="#000000"> &#160;&#160;&#160;sendValue(recipient: address, amount: uint256)</text>
<text text-anchor="start" x="1887.379" y="-710.3" font-family="Times,serif" font-size="14.00" fill="#000000"> &#160;&#160;&#160;functionCall(target: address, data: bytes): bytes</text>
<text text-anchor="start" x="1887.379" y="-693.5" font-family="Times,serif" font-size="14.00" fill="#000000"> &#160;&#160;&#160;functionCall(target: address, data: bytes, errorMessage: string): bytes</text>
<text text-anchor="start" x="1887.379" y="-676.7" font-family="Times,serif" font-size="14.00" fill="#000000"> &#160;&#160;&#160;functionCallWithValue(target: address, data: bytes, value: uint256): bytes</text>
<text text-anchor="start" x="1887.379" y="-659.9" font-family="Times,serif" font-size="14.00" fill="#000000"> &#160;&#160;&#160;functionCallWithValue(target: address, data: bytes, value: uint256, errorMessage: string): bytes</text>
<text text-anchor="start" x="1887.379" y="-643.1" font-family="Times,serif" font-size="14.00" fill="#000000"> &#160;&#160;&#160;functionStaticCall(target: address, data: bytes): bytes</text>
<text text-anchor="start" x="1887.379" y="-626.3" font-family="Times,serif" font-size="14.00" fill="#000000"> &#160;&#160;&#160;functionStaticCall(target: address, data: bytes, errorMessage: string): bytes</text>
<text text-anchor="start" x="1887.379" y="-609.5" font-family="Times,serif" font-size="14.00" fill="#000000"> &#160;&#160;&#160;functionDelegateCall(target: address, data: bytes): bytes</text>
<text text-anchor="start" x="1887.379" y="-592.7" font-family="Times,serif" font-size="14.00" fill="#000000"> &#160;&#160;&#160;functionDelegateCall(target: address, data: bytes, errorMessage: string): bytes</text>
</g>
<!-- 11 -->
<g id="node12" class="node">
<title>11</title>
<polygon fill="#f2f2f2" stroke="#000000" points="3326.4449,-626.5 3326.4449,-835.3 3756.4291,-835.3 3756.4291,-626.5 3326.4449,-626.5"/>
<text text-anchor="middle" x="3541.437" y="-818.7" font-family="Times,serif" font-size="14.00" fill="#000000">&lt;&lt;Library&gt;&gt;</text>
<text text-anchor="middle" x="3541.437" y="-801.9" font-family="Times,serif" font-size="14.00" fill="#000000">ERC165Checker</text>
<polyline fill="none" stroke="#000000" points="3326.4449,-793.7 3756.4291,-793.7 "/>
<text text-anchor="start" x="3334.4449" y="-777.1" font-family="Times,serif" font-size="14.00" fill="#000000">Private:</text>
<text text-anchor="start" x="3334.4449" y="-760.3" font-family="Times,serif" font-size="14.00" fill="#000000"> &#160;&#160;_INTERFACE_ID_INVALID: bytes4</text>
<polyline fill="none" stroke="#000000" points="3326.4449,-752.1 3756.4291,-752.1 "/>
<text text-anchor="start" x="3334.4449" y="-735.5" font-family="Times,serif" font-size="14.00" fill="#000000">Private:</text>
<text text-anchor="start" x="3334.4449" y="-718.7" font-family="Times,serif" font-size="14.00" fill="#000000"> &#160;&#160;&#160;_supportsERC165Interface(account: address, interfaceId: bytes4): bool</text>
<text text-anchor="start" x="3334.4449" y="-701.9" font-family="Times,serif" font-size="14.00" fill="#000000">Internal:</text>
<text text-anchor="start" x="3334.4449" y="-685.1" font-family="Times,serif" font-size="14.00" fill="#000000"> &#160;&#160;&#160;supportsERC165(account: address): bool</text>
<text text-anchor="start" x="3334.4449" y="-668.3" font-family="Times,serif" font-size="14.00" fill="#000000"> &#160;&#160;&#160;supportsInterface(account: address, interfaceId: bytes4): bool</text>
<text text-anchor="start" x="3334.4449" y="-651.5" font-family="Times,serif" font-size="14.00" fill="#000000"> &#160;&#160;&#160;getSupportedInterfaces(account: address, interfaceIds: bytes4[]): bool[]</text>
<text text-anchor="start" x="3334.4449" y="-634.7" font-family="Times,serif" font-size="14.00" fill="#000000"> &#160;&#160;&#160;supportsAllInterfaces(account: address, interfaceIds: bytes4[]): bool</text>
</g>
<!-- 11&#45;&gt;6 -->
<g id="edge8" class="edge">
<title>11&#45;&gt;6</title>
<path fill="none" stroke="#000000" stroke-dasharray="5,2" d="M3454.922,-835.513C3382.8012,-922.7207 3282.4947,-1044.0103 3222.5569,-1116.4864"/>
<polygon fill="#000000" stroke="#000000" points="3219.8449,-1114.2737 3216.1691,-1124.2105 3225.2393,-1118.7348 3219.8449,-1114.2737"/>
</g>
<!-- 12 -->
<g id="node13" class="node">
<title>12</title>
<polygon fill="#f2f2f2" stroke="#000000" points="3034.7693,-676.9 3034.7693,-784.9 3308.1047,-784.9 3308.1047,-676.9 3034.7693,-676.9"/>
<text text-anchor="middle" x="3171.437" y="-768.3" font-family="Times,serif" font-size="14.00" fill="#000000">&lt;&lt;Abstract&gt;&gt;</text>
<text text-anchor="middle" x="3171.437" y="-751.5" font-family="Times,serif" font-size="14.00" fill="#000000">ERC165</text>
<polyline fill="none" stroke="#000000" points="3034.7693,-743.3 3308.1047,-743.3 "/>
<text text-anchor="middle" x="3171.437" y="-726.7" font-family="Times,serif" font-size="14.00" fill="#000000"> </text>
<polyline fill="none" stroke="#000000" points="3034.7693,-718.5 3308.1047,-718.5 "/>
<text text-anchor="start" x="3042.7693" y="-701.9" font-family="Times,serif" font-size="14.00" fill="#000000">Public:</text>
<text text-anchor="start" x="3042.7693" y="-685.1" font-family="Times,serif" font-size="14.00" fill="#000000"> &#160;&#160;&#160;supportsInterface(interfaceId: bytes4): bool</text>
</g>
<!-- 12&#45;&gt;6 -->
<g id="edge9" class="edge">
<title>12&#45;&gt;6</title>
<path fill="none" stroke="#000000" stroke-dasharray="5,2" d="M3171.437,-785.3127C3171.437,-862.2212 3171.437,-1003.4198 3171.437,-1093.9723"/>
<polygon fill="none" stroke="#000000" points="3160.9371,-1094.2652 3171.437,-1124.2653 3181.9371,-1094.2653 3160.9371,-1094.2652"/>
</g>
<!-- 13 -->
<g id="node14" class="node">
<title>13</title>
<polygon fill="#f2f2f2" stroke="#000000" points="1030.5515,-179.1 1030.5515,-438.3 1594.3225,-438.3 1594.3225,-179.1 1030.5515,-179.1"/>
<text text-anchor="middle" x="1312.437" y="-421.7" font-family="Times,serif" font-size="14.00" fill="#000000">&lt;&lt;Abstract&gt;&gt;</text>
<text text-anchor="middle" x="1312.437" y="-404.9" font-family="Times,serif" font-size="14.00" fill="#000000">BEP20Operable</text>
<polyline fill="none" stroke="#000000" points="1030.5515,-396.7 1594.3225,-396.7 "/>
<text text-anchor="middle" x="1312.437" y="-380.1" font-family="Times,serif" font-size="14.00" fill="#000000"> </text>
<polyline fill="none" stroke="#000000" points="1030.5515,-371.9 1594.3225,-371.9 "/>
<text text-anchor="start" x="1038.5515" y="-355.3" font-family="Times,serif" font-size="14.00" fill="#000000">Internal:</text>
<text text-anchor="start" x="1038.5515" y="-338.5" font-family="Times,serif" font-size="14.00" fill="#000000"> &#160;&#160;&#160;_checkAndCallTransfer(sender: address, recipient: address, amount: uint256, data: bytes): bool</text>
<text text-anchor="start" x="1038.5515" y="-321.7" font-family="Times,serif" font-size="14.00" fill="#000000"> &#160;&#160;&#160;_checkAndCallApprove(spender: address, amount: uint256, data: bytes): bool</text>
<text text-anchor="start" x="1038.5515" y="-304.9" font-family="Times,serif" font-size="14.00" fill="#000000">Public:</text>
<text text-anchor="start" x="1038.5515" y="-288.1" font-family="Times,serif" font-size="14.00" fill="#000000"> &#160;&#160;&#160;supportsInterface(interfaceId: bytes4): bool</text>
<text text-anchor="start" x="1038.5515" y="-271.3" font-family="Times,serif" font-size="14.00" fill="#000000"> &#160;&#160;&#160;transferAndCall(recipient: address, amount: uint256): bool</text>
<text text-anchor="start" x="1038.5515" y="-254.5" font-family="Times,serif" font-size="14.00" fill="#000000"> &#160;&#160;&#160;transferAndCall(recipient: address, amount: uint256, data: bytes): bool</text>
<text text-anchor="start" x="1038.5515" y="-237.7" font-family="Times,serif" font-size="14.00" fill="#000000"> &#160;&#160;&#160;transferFromAndCall(sender: address, recipient: address, amount: uint256): bool</text>
<text text-anchor="start" x="1038.5515" y="-220.9" font-family="Times,serif" font-size="14.00" fill="#000000"> &#160;&#160;&#160;transferFromAndCall(sender: address, recipient: address, amount: uint256, data: bytes): bool</text>
<text text-anchor="start" x="1038.5515" y="-204.1" font-family="Times,serif" font-size="14.00" fill="#000000"> &#160;&#160;&#160;approveAndCall(spender: address, amount: uint256): bool</text>
<text text-anchor="start" x="1038.5515" y="-187.3" font-family="Times,serif" font-size="14.00" fill="#000000"> &#160;&#160;&#160;approveAndCall(spender: address, amount: uint256, data: bytes): bool</text>
</g>
<!-- 13&#45;&gt;3 -->
<g id="edge10" class="edge">
<title>13&#45;&gt;3</title>
<path fill="none" stroke="#000000" d="M1030.3685,-436.3089C1027.7179,-437.1565 1025.0736,-437.9872 1022.437,-438.8 944.8232,-462.7268 908.2871,-437.1474 839.3462,-466.1582"/>
<polygon fill="none" stroke="#000000" points="834.583,-456.7999 812.3446,-479.5091 843.8908,-475.6244 834.583,-456.7999"/>
</g>
<!-- 13&#45;&gt;7 -->
<g id="edge11" class="edge">
<title>13&#45;&gt;7</title>
<path fill="none" stroke="#000000" stroke-dasharray="5,2" d="M1594.5298,-436.6177C1597.5048,-437.3741 1600.4744,-438.1021 1603.437,-438.8 1787.6744,-482.2004 2279.1041,-403.4882 2454.437,-474.8 2526.826,-504.2422 2592.9001,-560.4373 2643.2587,-612.7031"/>
<polygon fill="none" stroke="#000000" points="2635.7077,-620.0015 2663.8514,-634.7727 2651.0619,-605.6749 2635.7077,-620.0015"/>
</g>
<!-- 13&#45;&gt;8 -->
<g id="edge14" class="edge">
<title>13&#45;&gt;8</title>
<path fill="none" stroke="#000000" stroke-dasharray="5,2" d="M1249.3973,-438.531C1212.4621,-514.5996 1167.4591,-607.2837 1138.1623,-667.6208"/>
<polygon fill="#000000" stroke="#000000" points="1134.9973,-666.1262 1133.7779,-676.6507 1141.2943,-669.1838 1134.9973,-666.1262"/>
</g>
<!-- 13&#45;&gt;9 -->
<g id="edge15" class="edge">
<title>13&#45;&gt;9</title>
<path fill="none" stroke="#000000" stroke-dasharray="5,2" d="M1410.8404,-438.531C1468.7322,-514.912 1539.3211,-608.0452 1585.0377,-668.3626"/>
<polygon fill="#000000" stroke="#000000" points="1582.4898,-670.7952 1591.3195,-676.6507 1588.0685,-666.5669 1582.4898,-670.7952"/>
</g>
<!-- 13&#45;&gt;10 -->
<g id="edge13" class="edge">
<title>13&#45;&gt;10</title>
<path fill="none" stroke="#000000" stroke-dasharray="5,2" d="M1594.6307,-436.2296C1597.5735,-437.1097 1600.5095,-437.967 1603.437,-438.8 1718.6057,-471.5712 1761.4482,-425.2096 1870.437,-474.8 1924.8296,-499.5489 1976.5567,-537.8543 2020.9453,-577.3641"/>
<polygon fill="#000000" stroke="#000000" points="2018.8003,-580.1424 2028.5745,-584.2309 2023.4833,-574.9395 2018.8003,-580.1424"/>
</g>
<!-- 13&#45;&gt;12 -->
<g id="edge12" class="edge">
<title>13&#45;&gt;12</title>
<path fill="none" stroke="#000000" d="M1594.5131,-436.6901C1597.4934,-437.4234 1600.4686,-438.1273 1603.437,-438.8 1680.5622,-456.2783 2958.6271,-434.111 3026.437,-474.8 3089.3522,-512.5519 3127.3094,-588.5363 3148.5116,-647.9806"/>
<polygon fill="none" stroke="#000000" points="3138.6552,-651.6205 3157.9891,-676.8485 3158.6074,-645.07 3138.6552,-651.6205"/>
</g>
<!-- 14 -->
<g id="node15" class="node">
<title>14</title>
<polygon fill="#f2f2f2" stroke="#000000" points="51.7027,-263.1 51.7027,-354.3 433.1713,-354.3 433.1713,-263.1 51.7027,-263.1"/>
<text text-anchor="middle" x="242.437" y="-337.7" font-family="Times,serif" font-size="14.00" fill="#000000">TokenRecover</text>
<polyline fill="none" stroke="#000000" points="51.7027,-329.5 433.1713,-329.5 "/>
<text text-anchor="middle" x="242.437" y="-312.9" font-family="Times,serif" font-size="14.00" fill="#000000"> </text>
<polyline fill="none" stroke="#000000" points="51.7027,-304.7 433.1713,-304.7 "/>
<text text-anchor="start" x="59.7027" y="-288.1" font-family="Times,serif" font-size="14.00" fill="#000000">Public:</text>
<text text-anchor="start" x="59.7027" y="-271.3" font-family="Times,serif" font-size="14.00" fill="#000000"> &#160;&#160;&#160;recoverBEP20(tokenAddress: address, tokenAmount: uint256)</text>
</g>
<!-- 14&#45;&gt;1 -->
<g id="edge16" class="edge">
<title>14&#45;&gt;1</title>
<path fill="none" stroke="#000000" d="M242.437,-354.5339C242.437,-482.0341 242.437,-844.5585 242.437,-1043.5208"/>
<polygon fill="none" stroke="#000000" points="231.9371,-1043.6945 242.437,-1073.6945 252.9371,-1043.6945 231.9371,-1043.6945"/>
</g>
<!-- 14&#45;&gt;2 -->
<g id="edge17" class="edge">
<title>14&#45;&gt;2</title>
<path fill="none" stroke="#000000" stroke-dasharray="5,2" d="M248.0437,-354.4111C266.1597,-498.9977 324.4404,-939.6613 367.437,-987 406.5948,-1030.1123 440.672,-998.3453 493.437,-1023 493.5356,-1023.0461 493.6342,-1023.0922 493.7328,-1023.1383"/>
<polygon fill="#000000" stroke="#000000" points="492.3846,-1026.3734 502.9148,-1027.5426 495.412,-1020.0619 492.3846,-1026.3734"/>
</g>
<!-- 15 -->
<g id="node16" class="node">
<title>15</title>
<polygon fill="#f2f2f2" stroke="#000000" points="1207.7476,-17.3 1207.7476,-125.3 1383.1264,-125.3 1383.1264,-17.3 1207.7476,-17.3"/>
<text text-anchor="middle" x="1295.437" y="-108.7" font-family="Times,serif" font-size="14.00" fill="#000000">&lt;&lt;Interface&gt;&gt;</text>
<text text-anchor="middle" x="1295.437" y="-91.9" font-family="Times,serif" font-size="14.00" fill="#000000">IPayable</text>
<polyline fill="none" stroke="#000000" points="1207.7476,-83.7 1383.1264,-83.7 "/>
<text text-anchor="middle" x="1295.437" y="-67.1" font-family="Times,serif" font-size="14.00" fill="#000000"> </text>
<polyline fill="none" stroke="#000000" points="1207.7476,-58.9 1383.1264,-58.9 "/>
<text text-anchor="start" x="1215.7476" y="-42.3" font-family="Times,serif" font-size="14.00" fill="#000000">External:</text>
<text text-anchor="start" x="1215.7476" y="-25.5" font-family="Times,serif" font-size="14.00" fill="#000000"> &#160;&#160;&#160;&#160;pay(serviceName: string)</text>
</g>
<!-- 16 -->
<g id="node17" class="node">
<title>16</title>
<polygon fill="#f2f2f2" stroke="#000000" points="1612.3969,-254.7 1612.3969,-362.7 1928.4771,-362.7 1928.4771,-254.7 1612.3969,-254.7"/>
<text text-anchor="middle" x="1770.437" y="-346.1" font-family="Times,serif" font-size="14.00" fill="#000000">&lt;&lt;Abstract&gt;&gt;</text>
<text text-anchor="middle" x="1770.437" y="-329.3" font-family="Times,serif" font-size="14.00" fill="#000000">ServicePayer</text>
<polyline fill="none" stroke="#000000" points="1612.3969,-321.1 1928.4771,-321.1 "/>
<text text-anchor="middle" x="1770.437" y="-304.5" font-family="Times,serif" font-size="14.00" fill="#000000"> </text>
<polyline fill="none" stroke="#000000" points="1612.3969,-296.3 1928.4771,-296.3 "/>
<text text-anchor="start" x="1620.3969" y="-279.7" font-family="Times,serif" font-size="14.00" fill="#000000">Public:</text>
<text text-anchor="start" x="1620.3969" y="-262.9" font-family="Times,serif" font-size="14.00" fill="#000000"> &#160;&#160;&#160;constructor(receiver: address, serviceName: string)</text>
</g>
<!-- 17 -->
<g id="node18" class="node">
<title>17</title>
<polygon fill="#f2f2f2" stroke="#000000" points="579.2072,-.5 579.2072,-142.1 1189.6668,-142.1 1189.6668,-.5 579.2072,-.5"/>
<text text-anchor="middle" x="884.437" y="-125.5" font-family="Times,serif" font-size="14.00" fill="#000000">AmazingBEP20</text>
<polyline fill="none" stroke="#000000" points="579.2072,-117.3 1189.6668,-117.3 "/>
<text text-anchor="middle" x="884.437" y="-100.7" font-family="Times,serif" font-size="14.00" fill="#000000"> </text>
<polyline fill="none" stroke="#000000" points="579.2072,-92.5 1189.6668,-92.5 "/>
<text text-anchor="start" x="587.2072" y="-75.9" font-family="Times,serif" font-size="14.00" fill="#000000">Internal:</text>
<text text-anchor="start" x="587.2072" y="-59.1" font-family="Times,serif" font-size="14.00" fill="#000000"> &#160;&#160;&#160;_mint(account: address, amount: uint256)</text>
<text text-anchor="start" x="587.2072" y="-42.3" font-family="Times,serif" font-size="14.00" fill="#000000"> &#160;&#160;&#160;_finishMinting()</text>
<text text-anchor="start" x="587.2072" y="-25.5" font-family="Times,serif" font-size="14.00" fill="#000000">Public:</text>
<text text-anchor="start" x="587.2072" y="-8.7" font-family="Times,serif" font-size="14.00" fill="#000000"> &#160;&#160;&#160;constructor(name: string, symbol: string, decimals: uint8, initialBalance: uint256, feeReceiver: address)</text>
</g>
<!-- 17&#45;&gt;4 -->
<g id="edge18" class="edge">
<title>17&#45;&gt;4</title>
<path fill="none" stroke="#000000" d="M884.437,-142.2063C884.437,-149.6899 884.437,-157.4777 884.437,-165.4191"/>
<polygon fill="none" stroke="#000000" points="873.9371,-165.5181 884.437,-195.5181 894.9371,-165.5182 873.9371,-165.5181"/>
</g>
<!-- 17&#45;&gt;5 -->
<g id="edge19" class="edge">
<title>17&#45;&gt;5</title>
<path fill="none" stroke="#000000" d="M791.9158,-142.2731C776.6269,-154.2769 761.0155,-166.7043 746.437,-178.6 727.6943,-193.8936 707.9002,-210.4944 689.0139,-226.5595"/>
<polygon fill="none" stroke="#000000" points="682.1155,-218.6429 666.1433,-246.1227 695.766,-234.6011 682.1155,-218.6429"/>
</g>
<!-- 17&#45;&gt;13 -->
<g id="edge20" class="edge">
<title>17&#45;&gt;13</title>
<path fill="none" stroke="#000000" d="M1012.2714,-142.2063C1025.1052,-149.3248 1038.4353,-156.7187 1052.0279,-164.2581"/>
<polygon fill="none" stroke="#000000" points="1047.1017,-173.5327 1078.4293,-178.9023 1057.2878,-155.1685 1047.1017,-173.5327"/>
</g>
<!-- 17&#45;&gt;14 -->
<g id="edge21" class="edge">
<title>17&#45;&gt;14</title>
<path fill="none" stroke="#000000" d="M579.0761,-130.6927C532.1028,-143.9695 484.8321,-159.8254 441.437,-178.6 401.037,-196.0789 359.7627,-221.5722 325.3534,-245.3695"/>
<polygon fill="none" stroke="#000000" points="319.1284,-236.9121 300.7869,-262.8706 331.3131,-254.0158 319.1284,-236.9121"/>
</g>
<!-- 17&#45;&gt;16 -->
<g id="edge22" class="edge">
<title>17&#45;&gt;16</title>
<path fill="none" stroke="#000000" d="M1189.7017,-141.1991C1192.6254,-141.6769 1195.5378,-142.1441 1198.437,-142.6 1376.9531,-170.6711 1435.3013,-112.3701 1603.437,-178.6 1636.1631,-191.491 1667.7598,-212.926 1694.498,-234.7152"/>
<polygon fill="none" stroke="#000000" points="1687.9955,-242.9723 1717.5805,-254.5903 1701.6979,-227.0586 1687.9955,-242.9723"/>
</g>
</g>
</svg>
